<?xml version="1.0" encoding="UTF-8" standalone="no"?>
<!-- Created with Inkscape (http://www.inkscape.org/) -->

<svg
   xmlns:dc="http://purl.org/dc/elements/1.1/"
   xmlns:cc="http://creativecommons.org/ns#"
   xmlns:rdf="http://www.w3.org/1999/02/22-rdf-syntax-ns#"
   xmlns:svg="http://www.w3.org/2000/svg"
   xmlns="http://www.w3.org/2000/svg"
   xmlns:xlink="http://www.w3.org/1999/xlink"
   xmlns:sodipodi="http://sodipodi.sourceforge.net/DTD/sodipodi-0.dtd"
   xmlns:inkscape="http://www.inkscape.org/namespaces/inkscape"
   width="2622"
   height="1410"
   viewBox="0 0 693.73748 373.06249"
   version="1.1"
   id="svg8"
   inkscape:version="0.92.2 (5c3e80d, 2017-08-06)"
   sodipodi:docname="Twitch design.svg">
  <defs
     id="defs2">
    <linearGradient
       id="linearGradient5187"
       inkscape:collect="always">
      <stop
         id="stop5183"
         offset="0"
         style="stop-color:#660080;stop-opacity:1" />
      <stop
         id="stop5185"
         offset="1"
         style="stop-color:#bc5fd3;stop-opacity:1" />
    </linearGradient>
    <linearGradient
       inkscape:collect="always"
       id="linearGradient4939">
      <stop
         style="stop-color:#330080;stop-opacity:1"
         offset="0"
         id="stop4935" />
      <stop
         style="stop-color:#ff00cc;stop-opacity:1"
         offset="1"
         id="stop4937" />
    </linearGradient>
    <linearGradient
       inkscape:collect="always"
       xlink:href="#linearGradient4939"
       id="linearGradient4941"
       x1="885.57007"
       y1="-155.74008"
       x2="2507.7256"
       y2="693.85583"
       gradientUnits="userSpaceOnUse" />
    <linearGradient
       inkscape:collect="always"
       xlink:href="#linearGradient5187"
       id="linearGradient5063"
       gradientUnits="userSpaceOnUse"
       x1="885.57007"
       y1="-155.74008"
       x2="3095.1653"
       y2="935.35883"
       gradientTransform="matrix(0.47819376,0,0,0.47819376,-421.10132,11.420828)" />
  </defs>
  <sodipodi:namedview
     id="base"
     pagecolor="#ffffff"
     bordercolor="#666666"
     borderopacity="1.0"
     inkscape:pageopacity="0.0"
     inkscape:pageshadow="2"
     inkscape:zoom="0.22930668"
     inkscape:cx="1683.5392"
     inkscape:cy="507.66471"
     inkscape:document-units="px"
     inkscape:current-layer="layer1"
     showgrid="false"
     showborder="true"
     inkscape:snap-nodes="false"
     inkscape:snap-global="false"
     inkscape:window-width="1366"
     inkscape:window-height="706"
     inkscape:window-x="-8"
     inkscape:window-y="-8"
     inkscape:window-maximized="1"
     width="298mm"
     units="px" />
  <metadata
     id="metadata5">
    <rdf:RDF>
      <cc:Work
         rdf:about="">
        <dc:format>image/svg+xml</dc:format>
        <dc:type
           rdf:resource="http://purl.org/dc/dcmitype/StillImage" />
        <dc:title></dc:title>
      </cc:Work>
    </rdf:RDF>
  </metadata>
  <g
     inkscape:label="Layer 1"
     inkscape:groupmode="layer"
     id="layer1"
     transform="translate(0,76.062462)">
    <g
       id="g1189">
      <rect
         style="opacity:0.73699999;fill:url(#linearGradient5063);fill-opacity:1;stroke:none;stroke-width:0.69878596"
         id="rect4855"
         width="693.19434"
         height="372.20575"
         x="0.10279971"
         y="-75.952461" />
      <g
         style="opacity:0.73699999"
         transform="matrix(0.49517652,-1.0543414,1.0543414,0.49517652,92.95965,8.626375)"
         id="g4557">
        <path
           style="opacity:1;fill:#ffffff;fill-opacity:1;stroke:none;stroke-width:0.24845019"
           d="m -5.3423096,103.32496 -6.5639404,9.20874 v 31.53709 h 29.691211 l 11.054622,-11.38484 v -29.36099 z"
           id="rect4524"
           inkscape:connector-curvature="0" />
        <path
           style="opacity:1;fill:#4400aa;fill-opacity:1;stroke-width:0.21313657"
           d="m -5.2916647,108.61663 v 30.69166 H 16.716351 l 8.68365,-8.8639 v -21.82776 z"
           id="rect4515"
           inkscape:connector-curvature="0" />
        <rect
           style="opacity:1;fill:#ffffff;stroke:none;stroke-width:0.32179052"
           id="rect4520"
           width="3.8614864"
           height="11.90625"
           x="14.73801"
           y="114.17291" />
        <rect
           y="114.17291"
           x="4.6838441"
           height="11.90625"
           width="3.8614864"
           id="rect4522"
           style="opacity:1;fill:#ffffff;stroke:none;stroke-width:0.32179052" />
        <path
           style="fill:#4400aa;fill-opacity:1;stroke:none;stroke-width:0.32214907px;stroke-linecap:butt;stroke-linejoin:miter;stroke-opacity:1"
           d="m 3.154319,138.28743 v 5.66285 l 4.706783,-5.7364 z"
           id="path4536"
           inkscape:connector-curvature="0" />
        <path
           inkscape:connector-curvature="0"
           style="opacity:1;fill:#ffffff;fill-opacity:1;stroke:none;stroke-width:2.40392447px;stroke-linecap:butt;stroke-linejoin:miter;stroke-opacity:1"
           d="m 31.421875,542.00195 -35.1230469,0.54883 v 21.96875 H 12.945312 Z"
           transform="scale(0.26458333)"
           id="path4539" />
      </g>
      <g
         id="g4571"
         transform="matrix(1.3773374,-0.45230553,0.45230553,1.3773374,407.66791,-71.093428)"
         style="opacity:0.73699999">
        <path
           inkscape:connector-curvature="0"
           id="path4559"
           d="m -5.3423096,103.32496 -6.5639404,9.20874 v 31.53709 h 29.691211 l 11.054622,-11.38484 v -29.36099 z"
           style="opacity:1;fill:#ffffff;fill-opacity:1;stroke:none;stroke-width:0.24845019" />
        <path
           inkscape:connector-curvature="0"
           id="path4561"
           d="m -5.2916647,108.61663 v 30.69166 H 16.716351 l 8.68365,-8.8639 v -21.82776 z"
           style="opacity:1;fill:#4400aa;fill-opacity:1;stroke-width:0.21313657" />
        <rect
           y="114.17291"
           x="14.73801"
           height="11.90625"
           width="3.8614864"
           id="rect4563"
           style="opacity:1;fill:#ffffff;stroke:none;stroke-width:0.32179052" />
        <rect
           style="opacity:1;fill:#ffffff;stroke:none;stroke-width:0.32179052"
           id="rect4565"
           width="3.8614864"
           height="11.90625"
           x="4.6838441"
           y="114.17291" />
        <path
           inkscape:connector-curvature="0"
           id="path4567"
           d="m 3.154319,138.28743 v 5.66285 l 4.706783,-5.7364 z"
           style="fill:#4400aa;fill-opacity:1;stroke:none;stroke-width:0.32214907px;stroke-linecap:butt;stroke-linejoin:miter;stroke-opacity:1" />
        <path
           id="path4569"
           transform="scale(0.26458333)"
           d="m 31.421875,542.00195 -35.1230469,0.54883 v 21.96875 H 12.945312 Z"
           style="opacity:1;fill:#ffffff;fill-opacity:1;stroke:none;stroke-width:2.40392447px;stroke-linecap:butt;stroke-linejoin:miter;stroke-opacity:1"
           inkscape:connector-curvature="0" />
      </g>
      <g
         style="opacity:0.73699999"
         transform="matrix(0.99210735,-0.16176696,0.16176696,0.99210735,123.18494,-155.18501)"
         id="g4585">
        <path
           style="opacity:1;fill:#ffffff;fill-opacity:1;stroke:none;stroke-width:0.24845019"
           d="m -5.3423096,103.32496 -6.5639404,9.20874 v 31.53709 h 29.691211 l 11.054622,-11.38484 v -29.36099 z"
           id="path4573"
           inkscape:connector-curvature="0" />
        <path
           style="opacity:1;fill:#4400aa;fill-opacity:1;stroke-width:0.21313657"
           d="m -5.2916647,108.61663 v 30.69166 H 16.716351 l 8.68365,-8.8639 v -21.82776 z"
           id="path4575"
           inkscape:connector-curvature="0" />
        <rect
           style="opacity:1;fill:#ffffff;stroke:none;stroke-width:0.32179052"
           id="rect4577"
           width="3.8614864"
           height="11.90625"
           x="14.73801"
           y="114.17291" />
        <rect
           y="114.17291"
           x="4.6838441"
           height="11.90625"
           width="3.8614864"
           id="rect4579"
           style="opacity:1;fill:#ffffff;stroke:none;stroke-width:0.32179052" />
        <path
           style="fill:#4400aa;fill-opacity:1;stroke:none;stroke-width:0.32214907px;stroke-linecap:butt;stroke-linejoin:miter;stroke-opacity:1"
           d="m 3.154319,138.28743 v 5.66285 l 4.706783,-5.7364 z"
           id="path4581"
           inkscape:connector-curvature="0" />
        <path
           inkscape:connector-curvature="0"
           style="opacity:1;fill:#ffffff;fill-opacity:1;stroke:none;stroke-width:2.40392447px;stroke-linecap:butt;stroke-linejoin:miter;stroke-opacity:1"
           d="m 31.421875,542.00195 -35.1230469,0.54883 v 21.96875 H 12.945312 Z"
           transform="scale(0.26458333)"
           id="path4583" />
      </g>
      <g
         id="g4599"
         transform="matrix(1.0183875,-0.33442954,0.33442954,1.0183875,580.92999,-26.617819)"
         style="opacity:0.73699999">
        <path
           inkscape:connector-curvature="0"
           id="path4587"
           d="m -5.3423096,103.32496 -6.5639404,9.20874 v 31.53709 h 29.691211 l 11.054622,-11.38484 v -29.36099 z"
           style="opacity:1;fill:#ffffff;fill-opacity:1;stroke:none;stroke-width:0.24845019" />
        <path
           inkscape:connector-curvature="0"
           id="path4589"
           d="m -5.2916647,108.61663 v 30.69166 H 16.716351 l 8.68365,-8.8639 v -21.82776 z"
           style="opacity:1;fill:#4400aa;fill-opacity:1;stroke-width:0.21313657" />
        <rect
           y="114.17291"
           x="14.73801"
           height="11.90625"
           width="3.8614864"
           id="rect4591"
           style="opacity:1;fill:#ffffff;stroke:none;stroke-width:0.32179052" />
        <rect
           style="opacity:1;fill:#ffffff;stroke:none;stroke-width:0.32179052"
           id="rect4593"
           width="3.8614864"
           height="11.90625"
           x="4.6838441"
           y="114.17291" />
        <path
           inkscape:connector-curvature="0"
           id="path4595"
           d="m 3.154319,138.28743 v 5.66285 l 4.706783,-5.7364 z"
           style="fill:#4400aa;fill-opacity:1;stroke:none;stroke-width:0.32214907px;stroke-linecap:butt;stroke-linejoin:miter;stroke-opacity:1" />
        <path
           id="path4597"
           transform="scale(0.26458333)"
           d="m 31.421875,542.00195 -35.1230469,0.54883 v 21.96875 H 12.945312 Z"
           style="opacity:1;fill:#ffffff;fill-opacity:1;stroke:none;stroke-width:2.40392447px;stroke-linecap:butt;stroke-linejoin:miter;stroke-opacity:1"
           inkscape:connector-curvature="0" />
      </g>
      <g
         style="opacity:0.73699999"
         transform="matrix(1.4821227,0.3601779,-0.3601779,1.4821227,95.167805,-138.10919)"
         id="g4613">
        <path
           style="opacity:1;fill:#ffffff;fill-opacity:1;stroke:none;stroke-width:0.24845019"
           d="m -5.3423096,103.32496 -6.5639404,9.20874 v 31.53709 h 29.691211 l 11.054622,-11.38484 v -29.36099 z"
           id="path4601"
           inkscape:connector-curvature="0" />
        <path
           style="opacity:1;fill:#4400aa;fill-opacity:1;stroke-width:0.21313657"
           d="m -5.2916647,108.61663 v 30.69166 H 16.716351 l 8.68365,-8.8639 v -21.82776 z"
           id="path4603"
           inkscape:connector-curvature="0" />
        <rect
           style="opacity:1;fill:#ffffff;stroke:none;stroke-width:0.32179052"
           id="rect4605"
           width="3.8614864"
           height="11.90625"
           x="14.73801"
           y="114.17291" />
        <rect
           y="114.17291"
           x="4.6838441"
           height="11.90625"
           width="3.8614864"
           id="rect4607"
           style="opacity:1;fill:#ffffff;stroke:none;stroke-width:0.32179052" />
        <path
           style="fill:#4400aa;fill-opacity:1;stroke:none;stroke-width:0.32214907px;stroke-linecap:butt;stroke-linejoin:miter;stroke-opacity:1"
           d="m 3.154319,138.28743 v 5.66285 l 4.706783,-5.7364 z"
           id="path4609"
           inkscape:connector-curvature="0" />
        <path
           inkscape:connector-curvature="0"
           style="opacity:1;fill:#ffffff;fill-opacity:1;stroke:none;stroke-width:2.40392447px;stroke-linecap:butt;stroke-linejoin:miter;stroke-opacity:1"
           d="m 31.421875,542.00195 -35.1230469,0.54883 v 21.96875 H 12.945312 Z"
           transform="scale(0.26458333)"
           id="path4611" />
      </g>
      <g
         id="g1069">
        <path
           style="opacity:0.73699999;fill:#ffffff;fill-opacity:1;stroke:none;stroke-width:0.44000676"
           d="m 298.27679,200.48851 4.112,19.60107 41.06591,37.85602 35.6403,-38.6623 -1.55514,-28.0607 -38.23231,-35.24392 z"
           id="path4629"
           inkscape:connector-curvature="0" />
        <path
           style="opacity:0.73699999;fill:#4400aa;fill-opacity:1;stroke-width:0.37746614"
           d="m 305.22811,206.7745 39.96504,36.84121 26.41766,-28.65766 -1.11855,-21.9473 -28.42294,-26.20129 z"
           id="path4631"
           inkscape:connector-curvature="0" />
        <rect
           style="opacity:0.73699999;fill:#ffffff;stroke:none;stroke-width:0.56989294"
           id="rect4633"
           width="6.8387156"
           height="21.08604"
           x="90.319786"
           y="374.41077"
           transform="rotate(-47.329026)" />
        <rect
           y="374.41077"
           x="72.513794"
           height="21.08604"
           width="6.8387156"
           id="rect4635"
           style="opacity:0.73699999;fill:#ffffff;stroke:none;stroke-width:0.56989294"
           transform="rotate(-47.329026)" />
        <path
           style="fill:#4400aa;fill-opacity:1;stroke:none;stroke-width:0.57052791px;stroke-linecap:butt;stroke-linejoin:miter;stroke-opacity:1"
           d="m 354.0021,231.39239 7.37386,6.79749 -1.81977,-13.01469 z"
           id="path4637"
           inkscape:connector-curvature="0" />
        <path
           inkscape:connector-curvature="0"
           style="opacity:0.73699999;fill:#ffffff;fill-opacity:1;stroke:none;stroke-width:1.12642765px;stroke-linecap:butt;stroke-linejoin:miter;stroke-opacity:1"
           d="m 366.85866,230.81669 -10.96587,12.27512 7.56881,6.9772 5.28686,-5.73515 z"
           id="path4639" />
      </g>
      <g
         transform="matrix(0.77859675,-0.70412864,0.7342133,0.81186312,534.8947,-33.910886)"
         style="fill:#ffffff;stroke:none"
         id="g4763">
        <g
           style="fill:#ffffff;stroke:none"
           id="g4737">
          <path
             style="fill:#ffffff;stroke:none"
             inkscape:connector-curvature="0"
             d="m 16,30 c 1.1,0 2,0.9 2,2 v 3 h 3 c 1.1,0 2,0.9 2,2 0,1.1 -0.9,2 -2,2 h -3 v 3 c 0,1.1 -0.9,2 -2,2 -1.1,0 -2,-0.9 -2,-2 V 39 H 11 C 9.9,39 9,38.1 9,37 9,35.9 9.9,35 11,35 h 3 v -3 c 0,-1.1 0.9,-2 2,-2 z m 0,-1 c -1.654,0 -3,1.346 -3,3 v 2 h -2 c -1.654,0 -3,1.346 -3,3 0,1.654 1.346,3 3,3 h 2 v 2 c 0,1.654 1.346,3 3,3 1.654,0 3,-1.346 3,-3 v -2 h 2 c 1.654,0 3,-1.346 3,-3 0,-1.654 -1.346,-3 -3,-3 h -2 v -2 c 0,-1.654 -1.346,-3 -3,-3 z"
             id="path4735" />
        </g>
        <g
           style="fill:#ffffff;stroke:none"
           id="g4741">
          <path
             style="fill:#ffffff;stroke:none"
             inkscape:connector-curvature="0"
             d="m 48,39 c -1.657,0 -3,1.342 -3,3 0,1.658 1.343,3 3,3 1.657,0 3,-1.342 3,-3 0,-1.658 -1.343,-3 -3,-3 z m 0,5 c -1.104,0 -2,-0.896 -2,-2 0,-1.104 0.896,-2 2,-2 1.104,0 2,0.896 2,2 0,1.104 -0.896,2 -2,2 z"
             id="path4739" />
        </g>
        <g
           style="fill:#ffffff;stroke:none"
           id="g4745">
          <path
             style="fill:#ffffff;stroke:none"
             inkscape:connector-curvature="0"
             d="m 48,29 c -1.657,0 -3,1.342 -3,3 0,1.658 1.343,3 3,3 1.657,0 3,-1.342 3,-3 0,-1.658 -1.343,-3 -3,-3 z m 0,5 c -1.104,0 -2,-0.896 -2,-2 0,-1.104 0.896,-2 2,-2 1.104,0 2,0.896 2,2 0,1.104 -0.896,2 -2,2 z"
             id="path4743" />
        </g>
        <g
           style="fill:#ffffff;stroke:none"
           id="g4749">
          <path
             style="fill:#ffffff;stroke:none"
             inkscape:connector-curvature="0"
             d="m 43,34 c -1.657,0 -3,1.342 -3,3 0,1.658 1.343,3 3,3 1.657,0 3,-1.342 3,-3 0,-1.658 -1.343,-3 -3,-3 z m 0,5 c -1.104,0 -2,-0.896 -2,-2 0,-1.104 0.896,-2 2,-2 1.104,0 2,0.896 2,2 0,1.104 -0.896,2 -2,2 z"
             id="path4747" />
        </g>
        <g
           style="fill:#ffffff;stroke:none"
           id="g4753">
          <path
             style="fill:#ffffff;stroke:none"
             inkscape:connector-curvature="0"
             d="m 53,34 c -1.657,0 -3,1.342 -3,3 0,1.658 1.343,3 3,3 1.657,0 3,-1.342 3,-3 0,-1.658 -1.343,-3 -3,-3 z m 0,5 c -1.104,0 -2,-0.896 -2,-2 0,-1.104 0.896,-2 2,-2 1.104,0 2,0.896 2,2 0,1.104 -0.896,2 -2,2 z"
             id="path4751" />
        </g>
        <g
           style="fill:#ffffff;stroke:none"
           id="g4757">
          <path
             style="fill:#ffffff;stroke:none"
             inkscape:connector-curvature="0"
             d="M 48,51 C 43.84,51 39.965,49.184 37.291,46 H 26.709 C 24.035,49.184 20.16,51 16,51 8.28,51 2,44.72 2,37 2,29.28 8.28,23 16,23 h 32 c 7.72,0 14,6.28 14,14 0,7.72 -6.28,14 -14,14 z M 25.745,44 h 12.51 l 0.3,0.383 C 40.853,47.317 44.295,49 48,49 54.617,49 60,43.617 60,37 60,30.383 54.617,25 48,25 H 16 C 9.383,25 4,30.383 4,37 c 0,6.617 5.383,12 12,12 3.705,0 7.147,-1.683 9.445,-4.617 z"
             id="path4755" />
        </g>
        <path
           style="fill:#ffffff;stroke:none"
           inkscape:connector-curvature="0"
           d="m 26,33 v 3 h 5 v -3 z m 4,2 h -3 v -1 h 3 z"
           id="path4759" />
        <path
           style="fill:#ffffff;stroke:none"
           inkscape:connector-curvature="0"
           d="m 33,33 v 3 h 5 v -3 z m 4,2 h -3 v -1 h 3 z"
           id="path4761" />
      </g>
      <g
         id="g4793"
         style="fill:#ffffff;stroke:none"
         transform="matrix(1.2982733,0.19082873,-0.19898209,1.3537434,148.44471,130.5916)">
        <g
           id="g4767"
           style="fill:#ffffff;stroke:none">
          <path
             id="path4765"
             d="m 16,30 c 1.1,0 2,0.9 2,2 v 3 h 3 c 1.1,0 2,0.9 2,2 0,1.1 -0.9,2 -2,2 h -3 v 3 c 0,1.1 -0.9,2 -2,2 -1.1,0 -2,-0.9 -2,-2 V 39 H 11 C 9.9,39 9,38.1 9,37 9,35.9 9.9,35 11,35 h 3 v -3 c 0,-1.1 0.9,-2 2,-2 z m 0,-1 c -1.654,0 -3,1.346 -3,3 v 2 h -2 c -1.654,0 -3,1.346 -3,3 0,1.654 1.346,3 3,3 h 2 v 2 c 0,1.654 1.346,3 3,3 1.654,0 3,-1.346 3,-3 v -2 h 2 c 1.654,0 3,-1.346 3,-3 0,-1.654 -1.346,-3 -3,-3 h -2 v -2 c 0,-1.654 -1.346,-3 -3,-3 z"
             inkscape:connector-curvature="0"
             style="fill:#ffffff;stroke:none" />
        </g>
        <g
           id="g4771"
           style="fill:#ffffff;stroke:none">
          <path
             id="path4769"
             d="m 48,39 c -1.657,0 -3,1.342 -3,3 0,1.658 1.343,3 3,3 1.657,0 3,-1.342 3,-3 0,-1.658 -1.343,-3 -3,-3 z m 0,5 c -1.104,0 -2,-0.896 -2,-2 0,-1.104 0.896,-2 2,-2 1.104,0 2,0.896 2,2 0,1.104 -0.896,2 -2,2 z"
             inkscape:connector-curvature="0"
             style="fill:#ffffff;stroke:none" />
        </g>
        <g
           id="g4775"
           style="fill:#ffffff;stroke:none">
          <path
             id="path4773"
             d="m 48,29 c -1.657,0 -3,1.342 -3,3 0,1.658 1.343,3 3,3 1.657,0 3,-1.342 3,-3 0,-1.658 -1.343,-3 -3,-3 z m 0,5 c -1.104,0 -2,-0.896 -2,-2 0,-1.104 0.896,-2 2,-2 1.104,0 2,0.896 2,2 0,1.104 -0.896,2 -2,2 z"
             inkscape:connector-curvature="0"
             style="fill:#ffffff;stroke:none" />
        </g>
        <g
           id="g4779"
           style="fill:#ffffff;stroke:none">
          <path
             id="path4777"
             d="m 43,34 c -1.657,0 -3,1.342 -3,3 0,1.658 1.343,3 3,3 1.657,0 3,-1.342 3,-3 0,-1.658 -1.343,-3 -3,-3 z m 0,5 c -1.104,0 -2,-0.896 -2,-2 0,-1.104 0.896,-2 2,-2 1.104,0 2,0.896 2,2 0,1.104 -0.896,2 -2,2 z"
             inkscape:connector-curvature="0"
             style="fill:#ffffff;stroke:none" />
        </g>
        <g
           id="g4783"
           style="fill:#ffffff;stroke:none">
          <path
             id="path4781"
             d="m 53,34 c -1.657,0 -3,1.342 -3,3 0,1.658 1.343,3 3,3 1.657,0 3,-1.342 3,-3 0,-1.658 -1.343,-3 -3,-3 z m 0,5 c -1.104,0 -2,-0.896 -2,-2 0,-1.104 0.896,-2 2,-2 1.104,0 2,0.896 2,2 0,1.104 -0.896,2 -2,2 z"
             inkscape:connector-curvature="0"
             style="fill:#ffffff;stroke:none" />
        </g>
        <g
           id="g4787"
           style="fill:#ffffff;stroke:none">
          <path
             id="path4785"
             d="M 48,51 C 43.84,51 39.965,49.184 37.291,46 H 26.709 C 24.035,49.184 20.16,51 16,51 8.28,51 2,44.72 2,37 2,29.28 8.28,23 16,23 h 32 c 7.72,0 14,6.28 14,14 0,7.72 -6.28,14 -14,14 z M 25.745,44 h 12.51 l 0.3,0.383 C 40.853,47.317 44.295,49 48,49 54.617,49 60,43.617 60,37 60,30.383 54.617,25 48,25 H 16 C 9.383,25 4,30.383 4,37 c 0,6.617 5.383,12 12,12 3.705,0 7.147,-1.683 9.445,-4.617 z"
             inkscape:connector-curvature="0"
             style="fill:#ffffff;stroke:none" />
        </g>
        <path
           id="path4789"
           d="m 26,33 v 3 h 5 v -3 z m 4,2 h -3 v -1 h 3 z"
           inkscape:connector-curvature="0"
           style="fill:#ffffff;stroke:none" />
        <path
           id="path4791"
           d="m 33,33 v 3 h 5 v -3 z m 4,2 h -3 v -1 h 3 z"
           inkscape:connector-curvature="0"
           style="fill:#ffffff;stroke:none" />
      </g>
      <g
         transform="matrix(1.2049526,0.80950332,-0.84409022,1.2564355,349.65081,-61.621136)"
         style="fill:#ffffff;stroke:none"
         id="g4823">
        <g
           style="fill:#ffffff;stroke:none"
           id="g4797">
          <path
             style="fill:#ffffff;stroke:none"
             inkscape:connector-curvature="0"
             d="m 16,30 c 1.1,0 2,0.9 2,2 v 3 h 3 c 1.1,0 2,0.9 2,2 0,1.1 -0.9,2 -2,2 h -3 v 3 c 0,1.1 -0.9,2 -2,2 -1.1,0 -2,-0.9 -2,-2 V 39 H 11 C 9.9,39 9,38.1 9,37 9,35.9 9.9,35 11,35 h 3 v -3 c 0,-1.1 0.9,-2 2,-2 z m 0,-1 c -1.654,0 -3,1.346 -3,3 v 2 h -2 c -1.654,0 -3,1.346 -3,3 0,1.654 1.346,3 3,3 h 2 v 2 c 0,1.654 1.346,3 3,3 1.654,0 3,-1.346 3,-3 v -2 h 2 c 1.654,0 3,-1.346 3,-3 0,-1.654 -1.346,-3 -3,-3 h -2 v -2 c 0,-1.654 -1.346,-3 -3,-3 z"
             id="path4795" />
        </g>
        <g
           style="fill:#ffffff;stroke:none"
           id="g4801">
          <path
             style="fill:#ffffff;stroke:none"
             inkscape:connector-curvature="0"
             d="m 48,39 c -1.657,0 -3,1.342 -3,3 0,1.658 1.343,3 3,3 1.657,0 3,-1.342 3,-3 0,-1.658 -1.343,-3 -3,-3 z m 0,5 c -1.104,0 -2,-0.896 -2,-2 0,-1.104 0.896,-2 2,-2 1.104,0 2,0.896 2,2 0,1.104 -0.896,2 -2,2 z"
             id="path4799" />
        </g>
        <g
           style="fill:#ffffff;stroke:none"
           id="g4805">
          <path
             style="fill:#ffffff;stroke:none"
             inkscape:connector-curvature="0"
             d="m 48,29 c -1.657,0 -3,1.342 -3,3 0,1.658 1.343,3 3,3 1.657,0 3,-1.342 3,-3 0,-1.658 -1.343,-3 -3,-3 z m 0,5 c -1.104,0 -2,-0.896 -2,-2 0,-1.104 0.896,-2 2,-2 1.104,0 2,0.896 2,2 0,1.104 -0.896,2 -2,2 z"
             id="path4803" />
        </g>
        <g
           style="fill:#ffffff;stroke:none"
           id="g4809">
          <path
             style="fill:#ffffff;stroke:none"
             inkscape:connector-curvature="0"
             d="m 43,34 c -1.657,0 -3,1.342 -3,3 0,1.658 1.343,3 3,3 1.657,0 3,-1.342 3,-3 0,-1.658 -1.343,-3 -3,-3 z m 0,5 c -1.104,0 -2,-0.896 -2,-2 0,-1.104 0.896,-2 2,-2 1.104,0 2,0.896 2,2 0,1.104 -0.896,2 -2,2 z"
             id="path4807" />
        </g>
        <g
           style="fill:#ffffff;stroke:none"
           id="g4813">
          <path
             style="fill:#ffffff;stroke:none"
             inkscape:connector-curvature="0"
             d="m 53,34 c -1.657,0 -3,1.342 -3,3 0,1.658 1.343,3 3,3 1.657,0 3,-1.342 3,-3 0,-1.658 -1.343,-3 -3,-3 z m 0,5 c -1.104,0 -2,-0.896 -2,-2 0,-1.104 0.896,-2 2,-2 1.104,0 2,0.896 2,2 0,1.104 -0.896,2 -2,2 z"
             id="path4811" />
        </g>
        <g
           style="fill:#ffffff;stroke:none"
           id="g4817">
          <path
             style="fill:#ffffff;stroke:none"
             inkscape:connector-curvature="0"
             d="M 48,51 C 43.84,51 39.965,49.184 37.291,46 H 26.709 C 24.035,49.184 20.16,51 16,51 8.28,51 2,44.72 2,37 2,29.28 8.28,23 16,23 h 32 c 7.72,0 14,6.28 14,14 0,7.72 -6.28,14 -14,14 z M 25.745,44 h 12.51 l 0.3,0.383 C 40.853,47.317 44.295,49 48,49 54.617,49 60,43.617 60,37 60,30.383 54.617,25 48,25 H 16 C 9.383,25 4,30.383 4,37 c 0,6.617 5.383,12 12,12 3.705,0 7.147,-1.683 9.445,-4.617 z"
             id="path4815" />
        </g>
        <path
           style="fill:#ffffff;stroke:none"
           inkscape:connector-curvature="0"
           d="m 26,33 v 3 h 5 v -3 z m 4,2 h -3 v -1 h 3 z"
           id="path4819" />
        <path
           style="fill:#ffffff;stroke:none"
           inkscape:connector-curvature="0"
           d="m 33,33 v 3 h 5 v -3 z m 4,2 h -3 v -1 h 3 z"
           id="path4821" />
      </g>
      <g
         id="g4853"
         style="fill:#ffffff;stroke:none"
         transform="matrix(1.1693941,-0.37480973,0.39082387,1.2193577,-7.7452494,221.29956)">
        <g
           id="g4827"
           style="fill:#ffffff;stroke:none">
          <path
             id="path4825"
             d="m 16,30 c 1.1,0 2,0.9 2,2 v 3 h 3 c 1.1,0 2,0.9 2,2 0,1.1 -0.9,2 -2,2 h -3 v 3 c 0,1.1 -0.9,2 -2,2 -1.1,0 -2,-0.9 -2,-2 V 39 H 11 C 9.9,39 9,38.1 9,37 9,35.9 9.9,35 11,35 h 3 v -3 c 0,-1.1 0.9,-2 2,-2 z m 0,-1 c -1.654,0 -3,1.346 -3,3 v 2 h -2 c -1.654,0 -3,1.346 -3,3 0,1.654 1.346,3 3,3 h 2 v 2 c 0,1.654 1.346,3 3,3 1.654,0 3,-1.346 3,-3 v -2 h 2 c 1.654,0 3,-1.346 3,-3 0,-1.654 -1.346,-3 -3,-3 h -2 v -2 c 0,-1.654 -1.346,-3 -3,-3 z"
             inkscape:connector-curvature="0"
             style="fill:#ffffff;stroke:none" />
        </g>
        <g
           id="g4831"
           style="fill:#ffffff;stroke:none">
          <path
             id="path4829"
             d="m 48,39 c -1.657,0 -3,1.342 -3,3 0,1.658 1.343,3 3,3 1.657,0 3,-1.342 3,-3 0,-1.658 -1.343,-3 -3,-3 z m 0,5 c -1.104,0 -2,-0.896 -2,-2 0,-1.104 0.896,-2 2,-2 1.104,0 2,0.896 2,2 0,1.104 -0.896,2 -2,2 z"
             inkscape:connector-curvature="0"
             style="fill:#ffffff;stroke:none" />
        </g>
        <g
           id="g4835"
           style="fill:#ffffff;stroke:none">
          <path
             id="path4833"
             d="m 48,29 c -1.657,0 -3,1.342 -3,3 0,1.658 1.343,3 3,3 1.657,0 3,-1.342 3,-3 0,-1.658 -1.343,-3 -3,-3 z m 0,5 c -1.104,0 -2,-0.896 -2,-2 0,-1.104 0.896,-2 2,-2 1.104,0 2,0.896 2,2 0,1.104 -0.896,2 -2,2 z"
             inkscape:connector-curvature="0"
             style="fill:#ffffff;stroke:none" />
        </g>
        <g
           id="g4839"
           style="fill:#ffffff;stroke:none">
          <path
             id="path4837"
             d="m 43,34 c -1.657,0 -3,1.342 -3,3 0,1.658 1.343,3 3,3 1.657,0 3,-1.342 3,-3 0,-1.658 -1.343,-3 -3,-3 z m 0,5 c -1.104,0 -2,-0.896 -2,-2 0,-1.104 0.896,-2 2,-2 1.104,0 2,0.896 2,2 0,1.104 -0.896,2 -2,2 z"
             inkscape:connector-curvature="0"
             style="fill:#ffffff;stroke:none" />
        </g>
        <g
           id="g4843"
           style="fill:#ffffff;stroke:none">
          <path
             id="path4841"
             d="m 53,34 c -1.657,0 -3,1.342 -3,3 0,1.658 1.343,3 3,3 1.657,0 3,-1.342 3,-3 0,-1.658 -1.343,-3 -3,-3 z m 0,5 c -1.104,0 -2,-0.896 -2,-2 0,-1.104 0.896,-2 2,-2 1.104,0 2,0.896 2,2 0,1.104 -0.896,2 -2,2 z"
             inkscape:connector-curvature="0"
             style="fill:#ffffff;stroke:none" />
        </g>
        <g
           id="g4847"
           style="fill:#ffffff;stroke:none">
          <path
             id="path4845"
             d="M 48,51 C 43.84,51 39.965,49.184 37.291,46 H 26.709 C 24.035,49.184 20.16,51 16,51 8.28,51 2,44.72 2,37 2,29.28 8.28,23 16,23 h 32 c 7.72,0 14,6.28 14,14 0,7.72 -6.28,14 -14,14 z M 25.745,44 h 12.51 l 0.3,0.383 C 40.853,47.317 44.295,49 48,49 54.617,49 60,43.617 60,37 60,30.383 54.617,25 48,25 H 16 C 9.383,25 4,30.383 4,37 c 0,6.617 5.383,12 12,12 3.705,0 7.147,-1.683 9.445,-4.617 z"
             inkscape:connector-curvature="0"
             style="fill:#ffffff;stroke:none" />
        </g>
        <path
           id="path4849"
           d="m 26,33 v 3 h 5 v -3 z m 4,2 h -3 v -1 h 3 z"
           inkscape:connector-curvature="0"
           style="fill:#ffffff;stroke:none" />
        <path
           id="path4851"
           d="m 33,33 v 3 h 5 v -3 z m 4,2 h -3 v -1 h 3 z"
           inkscape:connector-curvature="0"
           style="fill:#ffffff;stroke:none" />
      </g>
      <g
         id="g4709"
         style="fill:#ffffff;stroke:none"
         transform="matrix(0.17920002,1.5397961,-1.6055855,0.18685652,620.2816,158.87028)">
        <g
           id="g4683"
           style="fill:#ffffff;stroke:none">
          <path
             id="path4681"
             d="m 16,30 c 1.1,0 2,0.9 2,2 v 3 h 3 c 1.1,0 2,0.9 2,2 0,1.1 -0.9,2 -2,2 h -3 v 3 c 0,1.1 -0.9,2 -2,2 -1.1,0 -2,-0.9 -2,-2 V 39 H 11 C 9.9,39 9,38.1 9,37 9,35.9 9.9,35 11,35 h 3 v -3 c 0,-1.1 0.9,-2 2,-2 z m 0,-1 c -1.654,0 -3,1.346 -3,3 v 2 h -2 c -1.654,0 -3,1.346 -3,3 0,1.654 1.346,3 3,3 h 2 v 2 c 0,1.654 1.346,3 3,3 1.654,0 3,-1.346 3,-3 v -2 h 2 c 1.654,0 3,-1.346 3,-3 0,-1.654 -1.346,-3 -3,-3 h -2 v -2 c 0,-1.654 -1.346,-3 -3,-3 z"
             inkscape:connector-curvature="0"
             style="fill:#ffffff;stroke:none" />
        </g>
        <g
           id="g4687"
           style="fill:#ffffff;stroke:none">
          <path
             id="path4685"
             d="m 48,39 c -1.657,0 -3,1.342 -3,3 0,1.658 1.343,3 3,3 1.657,0 3,-1.342 3,-3 0,-1.658 -1.343,-3 -3,-3 z m 0,5 c -1.104,0 -2,-0.896 -2,-2 0,-1.104 0.896,-2 2,-2 1.104,0 2,0.896 2,2 0,1.104 -0.896,2 -2,2 z"
             inkscape:connector-curvature="0"
             style="fill:#ffffff;stroke:none" />
        </g>
        <g
           id="g4691"
           style="fill:#ffffff;stroke:none">
          <path
             id="path4689"
             d="m 48,29 c -1.657,0 -3,1.342 -3,3 0,1.658 1.343,3 3,3 1.657,0 3,-1.342 3,-3 0,-1.658 -1.343,-3 -3,-3 z m 0,5 c -1.104,0 -2,-0.896 -2,-2 0,-1.104 0.896,-2 2,-2 1.104,0 2,0.896 2,2 0,1.104 -0.896,2 -2,2 z"
             inkscape:connector-curvature="0"
             style="fill:#ffffff;stroke:none" />
        </g>
        <g
           id="g4695"
           style="fill:#ffffff;stroke:none">
          <path
             id="path4693"
             d="m 43,34 c -1.657,0 -3,1.342 -3,3 0,1.658 1.343,3 3,3 1.657,0 3,-1.342 3,-3 0,-1.658 -1.343,-3 -3,-3 z m 0,5 c -1.104,0 -2,-0.896 -2,-2 0,-1.104 0.896,-2 2,-2 1.104,0 2,0.896 2,2 0,1.104 -0.896,2 -2,2 z"
             inkscape:connector-curvature="0"
             style="fill:#ffffff;stroke:none" />
        </g>
        <g
           id="g4699"
           style="fill:#ffffff;stroke:none">
          <path
             id="path4697"
             d="m 53,34 c -1.657,0 -3,1.342 -3,3 0,1.658 1.343,3 3,3 1.657,0 3,-1.342 3,-3 0,-1.658 -1.343,-3 -3,-3 z m 0,5 c -1.104,0 -2,-0.896 -2,-2 0,-1.104 0.896,-2 2,-2 1.104,0 2,0.896 2,2 0,1.104 -0.896,2 -2,2 z"
             inkscape:connector-curvature="0"
             style="fill:#ffffff;stroke:none" />
        </g>
        <g
           id="g4703"
           style="fill:#ffffff;stroke:none">
          <path
             id="path4701"
             d="M 48,51 C 43.84,51 39.965,49.184 37.291,46 H 26.709 C 24.035,49.184 20.16,51 16,51 8.28,51 2,44.72 2,37 2,29.28 8.28,23 16,23 h 32 c 7.72,0 14,6.28 14,14 0,7.72 -6.28,14 -14,14 z M 25.745,44 h 12.51 l 0.3,0.383 C 40.853,47.317 44.295,49 48,49 54.617,49 60,43.617 60,37 60,30.383 54.617,25 48,25 H 16 C 9.383,25 4,30.383 4,37 c 0,6.617 5.383,12 12,12 3.705,0 7.147,-1.683 9.445,-4.617 z"
             inkscape:connector-curvature="0"
             style="fill:#ffffff;stroke:none" />
        </g>
        <path
           id="path4705"
           d="m 26,33 v 3 h 5 v -3 z m 4,2 h -3 v -1 h 3 z"
           inkscape:connector-curvature="0"
           style="fill:#ffffff;stroke:none" />
        <path
           id="path4707"
           d="m 33,33 v 3 h 5 v -3 z m 4,2 h -3 v -1 h 3 z"
           inkscape:connector-curvature="0"
           style="fill:#ffffff;stroke:none" />
      </g>
    </g>
  </g>
</svg>
